<svg width="499.99999999999994" height="499.99999999999994" xmlns="http://www.w3.org/2000/svg">

 <g>
  <title>background</title>
  <rect fill="none" id="canvas_background" height="402" width="582" y="-1" x="-1"/>
 </g>
 <g>
  <title>Layer 1</title>
  <path id="svg_1" fill-rule="evenodd" fill="#2f97ed" d="m73.333,285.841c0,97.85 79.316,177.168 177.167,177.168c97.846,0 177.168,-79.318 177.168,-177.168c0,-79.497 -52.332,-146.731 -124.475,-169.172l-0.087,-0.087c-6.913,-2.635 -11.723,-9.272 -11.723,-16.992c0,-9.99 8.18,-18.17 18.172,-18.17l4.543,0c12.537,0 22.716,-10.178 22.716,-22.714c0,-12.538 -10.179,-22.715 -22.716,-22.715l-127.197,0c-12.536,0 -22.713,10.177 -22.713,22.715c0,12.536 10.177,22.714 22.713,22.714l4.543,0c9.996,0 18.173,8.18 18.173,18.17c0,7.906 -5.09,14.632 -12.086,17.177c-16.716,5.173 -32.344,12.804 -46.607,22.44l-16.717,-16.727c-6.272,-6.264 -16.626,-6.264 -22.898,0l-24.166,24.18c-6.268,6.264 -6.268,16.619 0,22.891l16.717,16.716c-19.259,28.435 -30.527,62.683 -30.527,99.574zm154.454,-109.026c0,-12.536 10.177,-22.713 22.713,-22.713c12.537,0 22.715,10.177 22.715,22.713c0,12.539 -10.178,22.716 -22.715,22.716c-12.536,0 -22.713,-10.177 -22.713,-22.716zm-109.026,109.026c0,-12.535 10.177,-22.711 22.713,-22.711s22.713,10.176 22.713,22.711c0,12.537 -10.177,22.716 -22.713,22.716s-22.713,-10.179 -22.713,-22.716zm218.053,0c0,-12.535 10.175,-22.711 22.712,-22.711c12.535,0 22.715,10.176 22.715,22.711c0,12.537 -10.18,22.716 -22.715,22.716c-12.537,0 -22.712,-10.179 -22.712,-22.716zm-109.027,109.026c0,-12.537 10.177,-22.712 22.713,-22.712c12.537,0 22.715,10.175 22.715,22.712c0,12.539 -10.178,22.715 -22.715,22.715c-12.536,0 -22.713,-10.176 -22.713,-22.715zm112.928,-174.256l-73.678,73.687c-6.9,6.896 -18.081,6.896 -24.989,0c-6.902,-6.913 -6.902,-18.089 0,-24.985l73.683,-73.686c6.904,-6.903 18.084,-6.903 24.984,0c6.905,6.902 6.905,18.082 0,24.984z" clip-rule="evenodd"/>
 </g>
</svg>